# xmcd CD database file
#
# Track frame offsets:
#	150
#	9583
#	22715
#	47903
#	73533
#	88065
#	98658
#	111543
#	124355
#	139555
#
# Disc length: 2021 seconds
#
# Revision: 0
# Processed by: cddbd v1.5.1PL0 Copyright (c) Steve Scherf et al.
# Submitted via: CDex 1.60beta1
#
DISCID=8107e30a
DTITLE=Various Artist - More Gospel Soul
DYEAR=0
DGENRE=Blues
TTITLE0=Various Artist - Wonderful Jesus - The Gospelaires
TTITLE1=The Dixie Hummingbirds - I'd Rather Have Jesus
TTITLE2=Various Artist - Lord I've Really Been Trying - Mildred Clark and The Melody - Aires
TTITLE3=Pilgrim Jubilee Singers - Swing Down Sweet Chariot
TTITLE4=Various Artist - In The Hands Of The Lord - Five Blind Boys
TTITLE5=Various Artist - Amazing Grace - Mahalia Jackson
TTITLE6=The Mighty Clouds Of Joy - Glory Hallelujah
TTITLE7=Various Artist - The Greatest Warrior - Inez Andrews
TTITLE8=Jackson Southernaires - The Bible Will Be FulFilled
TTITLE9=Various Artist - Walking With The King - Highway O.C.'s
EXTD=YEAR: 0
EXTT0=
EXTT1=
EXTT2=
EXTT3=
EXTT4=
EXTT5=
EXTT6=
EXTT7=
EXTT8=
EXTT9=
PLAYORDER=
